<?xml version="1.0" encoding="UTF-8" standalone="no"?>
<svg
   version="1.1"
   id="Layer_1"
   x="0px"
   y="0px"
   width="1602.8848"
   height="532.75"
   viewBox="0 0 1602.8848 532.75"
   enable-background="new 0 0 1707 643"
   xml:space="preserve"
   sodipodi:docname="Progress_Baroutline.svg"
   xmlns:inkscape="http://www.inkscape.org/namespaces/inkscape"
   xmlns:sodipodi="http://sodipodi.sourceforge.net/DTD/sodipodi-0.dtd"
   xmlns="http://www.w3.org/2000/svg"
   xmlns:svg="http://www.w3.org/2000/svg"><defs
   id="defs136" /><sodipodi:namedview
   id="namedview134"
   pagecolor="#ffffff"
   bordercolor="#666666"
   borderopacity="1.0"
   inkscape:showpageshadow="2"
   inkscape:pageopacity="0.0"
   inkscape:pagecheckerboard="0"
   inkscape:deskcolor="#d1d1d1"
   showgrid="false" />  <g
   id="g559"
   transform="translate(-36.955746,-55.159771)"><path
     id="path548"
     style="fill:#000000"
     class="UnoptimicedTransforms"
     d="M 195.73438,55.642578 C 118.28762,48.44067 66.202633,123.13448 53.050164,191.21374 30.303502,299.9741 25.184701,422.34927 81.409236,522.00827 c 30.951074,57.0385 102.469694,79.13632 162.316824,58.06182 85.57955,-18.87824 167.86033,-88.94732 258.7635,-52.82133 54.04844,23.84092 122.46688,44.17192 174.72682,5.02925 0.48345,-56.30787 -119.91904,-62.46591 -92.75729,-131.34181 36.92117,-39.92435 110.59425,-10.40225 161.95012,-21.06237 206.15789,-3.12203 412.29749,-10.25985 618.47379,-10.45141 48.0647,2.61724 62.8434,67.09134 116.1766,33.66915 39.0583,-7.6107 93.0116,-28.04701 99.262,26.4103 79.9828,28.2364 65.9079,-81.87918 10.9772,-94.13468 20.9271,-30.03868 -29.5597,-24.86137 -24.4668,-6.91015 -20.3323,-2.30576 8.5831,-41.15405 -28.5744,-27.89171 -13.7997,49.18938 -3.2549,-37.69815 -36.2976,-6.76133 6.5568,25.6663 -26.3166,7.49843 -7.779,-9.30585 -27.3256,-31.14489 -26.739,35.90799 -38.9466,5.23818 19.1908,-23.93154 -37.8125,-28.32259 -21.6104,0.53368 -23.3263,4.01717 1.3166,-43.38942 -34.5247,-22.99592 -7.4516,42.34602 -85.8283,34.60794 -128.2424,33.47343 -200.5523,-3.25447 -401.19696,-4.18116 -601.71184,-6.71759 C 617.32953,249.67649 689.14472,179.11827 742.0767,174.14684 830.484,143.48646 708.95079,75.864184 662.13752,103.05659 593.3551,108.72289 530.98585,150.04594 461.51023,146.01234 368.32253,130.74716 291.03637,62.69582 195.73438,55.642578 Z m -2.17188,2.21875 c 103.84585,7.817442 187.55616,89.228972 292.14897,92.066422 81.52481,-12.44678 160.66412,-60.622339 245.20185,-42.06849 46.34197,7.16549 58.38221,62.87617 2.6902,66.3673 -55.72724,1.58727 -121.89501,92.27299 -59.86185,121.74433 225.31925,3.40763 450.78953,5.72719 676.15393,7.86488 23.3753,-11.33741 58.7776,-11.33628 56.2757,-38.04721 32.8433,-4.43317 -8.3902,40.65714 31.9283,25.26375 -15.0497,-31.55606 36.1598,-15.6662 11.6313,4.98896 26.7417,24.85606 21.3677,-40.75193 41.5044,-5.46121 -22.0174,21.51031 27.1764,26.34044 17.0063,0.21131 30.5881,-7.52488 -1.8745,45.85259 31.6022,24.26918 -5.8197,-28.90378 37.9589,-5.63224 11.905,8.83093 25.1563,32.21671 26.6575,-35.04472 42.504,3.27458 -20.0907,25.53441 81.0692,52.41006 32.0032,93.97847 -53.0311,49.63544 -44.8923,-61.94862 -100.4054,-28.88458 -51.2878,10.35289 -100.1955,28.84607 -134.9351,-19.16554 -52.9022,-14.93949 -109.9951,-2.70356 -164.553,-5.2672 -209.9866,4.7454 -420.39561,6.65098 -630.12037,13.79862 -58.74056,57.62305 39.21944,99.00201 75.46345,132.29233 1.27516,47.45383 -88.94569,43.5648 -125.42357,26.63026 C 490.25133,512.98557 424.1855,504.46105 366.08823,531.76995 296.35107,558.08662 218.96561,604.9697 143.28135,573.73633 53.069901,528.93579 41.809713,417.29271 40.379826,327.9641 41.499822,239.58788 51.962472,136.85427 124.06215,76.506252 143.86476,61.585757 169.23336,56.746003 193.5625,57.861328 Z" /></g>
</svg>
