<?xml version="1.0" encoding="UTF-8" standalone="no"?>
<svg
   version="1.1"
   id="Layer_1"
   x="0px"
   y="0px"
   width="1603.4818"
   height="532.02722"
   viewBox="0 0 1603.4818 532.02722"
   enable-background="new 0 0 1707 643"
   xml:space="preserve"
   xmlns="http://www.w3.org/2000/svg"
   xmlns:svg="http://www.w3.org/2000/svg"><defs
   id="defs136" />  <g
   id="g559"
   transform="translate(-37.45031,-55.485718)"><path
     id="path548"
     style="fill:#000000"
     d="M 195.73438,55.642578 C 150.91082,53.580192 114.82061,71.878855 88.476562,109.10938 58.369068,151.65845 40.989823,218.93801 37.847656,308.81055 32.524565,461.06222 80.990127,566.37222 164.87695,584.83008 c 37.97728,8.35623 88.8876,-2.59362 166.69922,-35.85742 92.6355,-39.60093 124.02104,-41.55135 196.30078,-12.19532 53.02859,21.53727 90.26354,23.42735 130.61524,6.62891 35.7245,-14.87219 29.82509,-26.76296 -34.63086,-69.79102 -47.1961,-31.50604 -55.35039,-52.76266 -32.20508,-83.94726 5.69807,-7.67727 -14.4505,-6.64712 212.2207,-10.84961 42.89972,-0.79536 87.22507,-1.7054 98.5,-2.02148 17.77961,-0.49855 125.01275,-2.60242 331.50005,-6.50586 99.3719,-1.87856 134.909,-1.79014 142.5,0.35742 20.4821,5.79472 37.8035,18.43528 45.7871,33.41406 5.4571,10.23841 0.8307,10.18521 50.7129,0.59766 89.8836,-17.27618 95.6723,-17.14784 96.7382,2.15039 2.3009,41.65876 61.3685,37.00467 70.7715,-5.57617 3.9123,-17.71695 -13.4785,-40.90366 -43.8613,-58.48047 -8.3507,-4.83107 -8.349,-4.83031 -5.2266,-7.38672 12.4059,-10.1572 6.407,-23.25267 -10.7578,-23.48438 -7.6607,-0.10341 -9.5737,2.40303 -8.9121,11.67774 0.2649,3.71243 0.3335,6.75 0.1523,6.75 -0.3851,0 -8.2318,-3.12042 -13.7441,-5.4668 -3.8393,-1.63429 -3.8393,-1.63462 0.75,-6.54102 9.1681,-9.8013 3.9158,-18.47361 -11.9609,-19.74804 -8.5658,-0.68758 -10.8874,2.04728 -10.1895,12.00586 0.2599,3.71243 0.3565,6.75 0.2129,6.75 -1.1012,0 -14.137,-4.34304 -14.7383,-4.91016 -0.4212,-0.3972 0.8376,-2.77795 2.7949,-5.29101 6.8739,-8.82297 5.1784,-15.32428 -4.7656,-18.27735 -14.1449,-4.2005 -20.7645,0.5488 -17.6152,12.63672 0.837,3.21259 1.288,5.8418 1.0039,5.8418 -0.8762,0 -16.6285,-4.2694 -17.043,-4.61914 -0.2147,-0.1811 1.1492,-2.03026 3.0293,-4.11133 10.0823,-11.15976 5.8997,-19.40832 -10.623,-20.95117 -10.2044,-0.9529 -13.673,4.37341 -10.4375,16.02539 1.3583,4.89182 1.0117,5.16175 -4.7891,3.73047 -13.6496,-3.36806 -12.8437,-2.63612 -8.4316,-7.64844 8.8066,-10.00476 5.3432,-16.96311 -10.1485,-20.39258 -10.5059,-2.32577 -15.5245,5.33225 -11.2832,17.2168 1.5677,4.39305 0.8315,4.61803 -8.6269,2.64257 -7.2571,-1.51564 -7.4742,-1.98903 -3.3809,-7.35156 8.1779,-10.71357 2.6897,-18.51805 -13.0332,-18.53515 -9.6224,-0.0105 -12.9597,5.40021 -9.5527,15.49218 1.9383,5.74128 1.9381,5.74132 -2.4473,5.1211 -14.0331,-1.98465 -11.5988,-2.81328 -24.3008,8.28125 -11.4166,9.97178 -11.4166,9.97299 -36,9.49804 -34.8143,-0.67255 -314.7327,-4.21971 -426.08395,-5.39843 -51.42465,-0.54436 -128.86193,-0.99114 -172.08203,-0.99414 -78.58193,-0.006 -78.58306,-0.006 -81.70508,-10.25586 -15.46223,-50.76468 7.06983,-83.02154 74.78711,-107.06641 31.70595,-11.25805 36.91974,-13.95556 42.20313,-21.82226 6.73064,-10.02172 3.85511,-20.00986 -9.33399,-32.41016 -36.82307,-34.620836 -98.45613,-31.069703 -234,13.48047 -14.9976,4.92934 -28.18658,8.13627 -41.39648,9.30078 -35.66312,3.14389 -71.48282,-8.59549 -143.47266,-41.48438 -71.8762,-32.836957 -95.97572,-41.608643 -129.90039,-47.281246 -6.7569,-1.129839 -13.33885,-1.840138 -19.74218,-2.134766 z m -2.17188,2.21875 c 33.65786,1.490985 73.90846,14.940864 140.31445,45.216792 107.56036,49.03917 140.63682,55.63963 192.57617,38.42579 139.91765,-46.371806 200.9799,-50.043243 237.02735,-14.25 20.98565,20.83755 14.37703,31.2259 -29.87695,46.97265 -65.00306,23.12986 -84.2192,43.43559 -83.00782,87.7168 1.02822,37.58622 -6.57819,35.01008 105.53516,35.76562 127.47535,0.85914 248.95214,2.17323 427.24614,4.62305 202.5388,2.78296 177.8601,3.76612 190.955,-7.61719 11.037,-9.59435 11.0359,-9.59407 19.6836,-8.44336 10.1801,1.35473 11.5057,0.76427 9.4649,-4.2246 -5.4638,-13.35691 -2.1756,-18.34572 10.375,-15.74024 10.2269,2.1231 11.5107,6.70749 4.3867,15.67188 -5.4518,6.86006 -3.8974,8.40174 10.5879,10.49609 10.0693,1.45588 10.442,1.22542 8.1738,-5.08203 -4.3835,-12.19016 -0.4264,-17.85175 10.2246,-14.62696 11.1673,3.3812 12.5028,7.45294 5.1719,15.78126 -6.425,7.2991 -4.9339,8.70091 12.7207,11.95507 7.7346,1.42572 7.9615,1.19517 6.2812,-6.46875 -2.8813,-13.14244 0.356,-16.2433 13.2305,-12.66797 8.5829,2.38356 9.5456,6.65542 3.2442,14.39258 -6.6286,8.1381 -6.3598,8.72611 5.4335,11.88867 14.5005,3.88837 14.9094,3.75844 12.5645,-3.9707 -3.1439,-10.36278 -1.0629,-13.91276 7.7207,-13.17383 13.3767,1.12535 15.9238,6.3945 7.8145,16.16602 -5.6368,6.79165 -5.4583,7.1265 5.6777,10.60742 13.6338,4.26168 13.7287,4.24486 12.7559,-2.21484 -2.1522,-14.28139 2.0479,-17.53401 15.1972,-11.76563 7.6366,3.35003 7.615,7.56631 -0.078,14.96094 -5.4174,5.20706 -4.8751,6.31351 5.1641,10.52344 14.8882,6.24354 16.1112,5.99204 14.2578,-2.93555 -2.1684,-10.44492 2.8531,-14.09471 13.2578,-9.63477 9.7324,4.1718 10.3091,8.54653 2.1152,16.03516 -6.8927,6.29949 -7.1119,5.72245 4.8692,12.82813 42.9814,25.49148 54.5014,53.19915 31.6289,76.07226 -21.949,21.94886 -51.6236,13.40697 -53.9395,-15.52734 -1.6892,-21.10386 -7.8748,-21.30677 -101.7031,-3.32031 -44.5037,8.53106 -41.6036,8.56215 -46.461,-0.48633 -7.9326,-14.77829 -28.2999,-29.21993 -47.8398,-33.92188 -10.8983,-2.6225 -38.6104,-2.33714 -332.4355,3.41016 -56.09991,1.09733 -122.25019,2.44587 -147.00005,2.99805 -24.74979,0.55212 -81.22528,1.68597 -125.5,2.51757 -44.27465,0.83159 -98.95014,1.9575 -121.5,2.50196 -22.54979,0.54445 -44.19075,0.99118 -48.08984,0.99218 -15.09069,0.005 -28.4649,29.65295 -22.99609,50.97657 4.10393,16.00196 12.71219,24.51419 49.58593,49.02734 58.84605,39.11996 62.1807,49.53725 20.35352,63.57812 -40.53316,13.60656 -66.06037,11.37116 -122.13281,-10.69531 -44.3205,-17.44162 -56.79429,-19.97826 -88.50391,-18.00195 -34.0833,2.12426 -50.40457,6.87543 -108.91406,31.70898 -52.75713,22.39208 -81.67639,31.89325 -106.25,34.90625 -37.43613,4.59018 -58.57432,2.44787 -79.64844,-8.07226 C 84.625147,544.4555 53.641182,487.72 43.927734,391.81055 26.19896,216.75849 75.933881,76.324084 161.37695,60.175781 c 10.479,-1.980476 20.96626,-2.811444 32.18555,-2.314453 z" /></g>
</svg>
