<?xml version="1.0" encoding="UTF-8" standalone="no"?>
<svg
   version="1.1"
   id="Layer_1"
   x="0px"
   y="0px"
   width="1707"
   height="643"
   viewBox="0 0 1707 643"
   enable-background="new 0 0 1707 643"
   xml:space="preserve"
   sodipodi:docname="Progress_Bar.svg"
   xmlns:inkscape="http://www.inkscape.org/namespaces/inkscape"
   xmlns:sodipodi="http://sodipodi.sourceforge.net/DTD/sodipodi-0.dtd"
   xmlns="http://www.w3.org/2000/svg"
   xmlns:svg="http://www.w3.org/2000/svg"><defs
   id="defs136" /><sodipodi:namedview
   id="namedview134"
   pagecolor="#ffffff"
   bordercolor="#666666"
   borderopacity="1.0"
   inkscape:showpageshadow="2"
   inkscape:pageopacity="0.0"
   inkscape:pagecheckerboard="0"
   inkscape:deskcolor="#d1d1d1"
   showgrid="false" />  <path
   style="fill:#000000"
   d="M 164.87712,584.83082 C 80.989688,566.37282 32.524051,461.06281 37.847184,308.81002 44.131559,129.06368 107.36448,39.700387 215.47595,57.777915 c 33.92488,5.672644 58.02441,14.444432 129.90117,47.281645 98.65604,45.07145 129.38107,50.42018 184.86872,32.18266 135.54478,-44.550477 197.17656,-48.100817 233.99991,-13.47975 13.18917,12.40037 16.06601,22.38805 9.3353,32.40984 -5.28339,7.86677 -10.49777,10.56279 -42.20393,21.82091 -67.71777,24.04501 -90.24938,56.30177 -74.78701,107.0668 3.12202,10.25 3.12202,10.25 81.70451,10.25576 43.22038,0.003 120.6575,0.45114 172.0825,0.9955 111.35198,1.17872 391.26838,4.72411 426.08338,5.39673 24.5834,0.47495 24.5834,0.47495 36,-9.4969 12.702,-11.0946 10.2689,-10.26553 24.302,-8.28088 4.3854,0.62022 4.3854,0.62022 2.4471,-5.12106 -3.407,-10.09204 -0.07,-15.50406 9.5524,-15.49357 15.7229,0.0171 21.2102,7.82135 13.0323,18.53499 -4.0933,5.36253 -3.8751,5.83694 3.382,7.35265 9.4584,1.97546 10.1946,1.7499 8.6269,-2.64322 -4.2413,-11.88462 0.7772,-19.54195 11.2831,-17.21618 15.4917,3.42947 18.9539,10.38703 10.1473,20.39186 -4.4121,5.01239 -5.2178,4.28146 8.4318,7.64952 5.8008,1.43135 6.1485,1.16046 4.7902,-3.73143 -3.2355,-11.65205 0.2332,-16.9774 10.4376,-16.0245 16.5227,1.54292 20.7041,9.78999 10.6218,20.94982 -1.8801,2.08107 -3.2428,3.93194 -3.0281,4.11304 0.4145,0.34974 16.1667,4.61787 17.0429,4.61787 0.2841,0 -0.1682,-2.62848 -1.0052,-5.84107 -3.1493,-12.08799 3.4712,-16.83708 17.6161,-12.63651 9.944,2.95307 11.6388,9.45385 4.7649,18.27682 -1.958,2.51313 -3.2154,4.8943 -2.7942,5.2915 0.6013,0.56712 13.6363,4.90926 14.7375,4.90926 0.1436,0 0.048,-3.0375 -0.2119,-6.75 -0.6979,-9.95865 1.6233,-12.69374 10.1891,-12.00616 15.8767,1.27443 21.1297,9.94687 11.9616,19.74824 -4.5893,4.9064 -4.5893,4.9064 -0.75,6.54069 5.5123,2.34638 13.3571,5.46723 13.7429,5.46723 0.1812,0 0.1128,-3.0375 -0.1521,-6.75 -0.6616,-9.27478 1.2512,-11.78137 8.9119,-11.67796 17.1648,0.23171 23.1635,13.32717 10.7576,23.48444 -3.1224,2.55648 -3.1224,2.55648 5.2283,7.38755 30.3828,17.57695 47.7722,40.76297 43.8599,58.47999 -9.403,42.58119 -68.4694,47.23502 -70.7703,5.57598 -1.0659,-19.29837 -6.8545,-19.42707 -96.7388,-2.15082 -49.8822,9.58762 -45.2554,9.64204 -50.7125,-0.59644 -7.9836,-14.97885 -25.3047,-27.61903 -45.7875,-33.41382 -7.591,-2.14756 -43.1274,-2.23693 -142.5,-0.35837 -206.4887,3.90351 -313.7203,6.0083 -331.49998,6.50685 -11.275,0.31615 -55.6,1.22557 -98.5,2.02093 -226.67281,4.20249 -206.52364,3.17237 -212.22178,10.84971 -23.14545,31.18481 -14.99082,52.44057 32.20563,83.94689 64.45644,43.02834 70.35659,54.91843 34.63181,69.79069 -40.35198,16.79858 -77.58672,14.90901 -130.61566,-6.6284 -72.2803,-29.35624 -103.66535,-27.40653 -196.30148,12.19468 -77.81218,33.26408 -128.72103,44.2152 -166.69852,35.8589 z m 58.05328,-3.02249 c 24.57382,-3.01307 53.49251,-12.51359 106.24999,-34.90581 58.50991,-24.83376 74.83054,-29.58541 108.91405,-31.70967 31.70983,-1.97631 44.18256,0.56078 88.50334,18.00254 56.07286,22.06661 81.59992,24.30206 122.13336,10.69543 41.82746,-14.04101 38.49245,-24.45839 -20.35402,-63.57863 -36.87402,-24.51329 -45.48263,-33.02472 -49.58663,-49.02682 -5.46881,-21.32376 7.90661,-50.97272 22.99737,-50.97768 3.89909,-10e-4 25.53926,-0.44779 48.08926,-0.99224 22.55,-0.54446 77.225,-1.67032 121.5,-2.50191 44.275,-0.8316 100.75,-1.96378 125.5,-2.51597 24.75,-0.55218 90.9,-1.90177 146.99998,-2.9991 293.8272,-5.7473 321.5378,-6.03146 332.4361,-3.40896 19.5399,4.70195 39.9049,19.14215 47.8382,33.92051 4.8574,9.04855 1.9585,9.01816 46.4622,0.48703 93.829,-17.98653 100.0138,-17.78468 101.703,3.31932 2.3159,28.93452 31.9909,37.47754 53.9399,15.52854 22.8732,-22.87325 11.3527,-50.58182 -31.6294,-76.07351 -11.9811,-7.10568 -11.7615,-6.52726 -4.8688,-12.82682 8.1939,-7.4887 7.6166,-11.86331 -2.1158,-16.03511 -10.4047,-4.46001 -15.4268,-0.81075 -13.2584,9.63424 1.8534,8.92766 0.6319,9.17918 -14.257,2.93557 -10.0392,-4.20993 -10.5821,-5.31596 -5.1647,-10.52309 7.6933,-7.3947 7.7156,-11.61118 0.079,-14.96121 -13.1493,-5.76845 -17.3502,-2.51642 -15.198,11.76504 0.9735,6.45977 0.8775,6.47643 -12.7563,2.21475 -11.136,-3.48092 -11.3144,-3.81415 -5.6776,-10.60587 8.11,-9.77159 5.5626,-15.0421 -7.8141,-16.16745 -8.7836,-0.73893 -10.8644,2.81199 -7.7205,13.17484 2.3449,7.72921 1.9368,7.85816 -12.5637,3.96979 -11.794,-3.16263 -12.0629,-3.75093 -5.4343,-11.8891 6.3021,-7.73723 5.3394,-12.00902 -3.2435,-14.39258 -12.8745,-3.5754 -16.1133,-0.47465 -13.232,12.66793 1.6803,7.66392 1.4549,7.8961 -6.2797,6.47038 -17.6546,-3.25423 -19.147,-4.65674 -12.722,-11.95591 7.3309,-8.32832 5.9967,-12.40034 -5.1706,-15.78154 -10.651,-3.22486 -14.609,2.43693 -10.2255,14.62716 2.2682,6.30752 1.8967,6.53853 -8.1726,5.08265 -14.4853,-2.09435 -16.0403,-3.63576 -10.5885,-10.49589 7.124,-8.96439 5.8406,-13.55037 -4.3863,-15.67347 -12.5506,-2.60548 -15.8389,2.38336 -10.3751,15.74034 2.0408,4.98894 0.7156,5.58063 -9.4645,4.2259 -8.6477,-1.15078 -8.6477,-1.15078 -19.6847,8.44364 -13.0949,11.38338 11.5852,10.39903 -190.955,7.61607 -178.2947,-2.44982 -299.7696,-3.76439 -427.24586,-4.62353 -112.11412,-0.75561 -104.50648,1.8225 -105.5347,-35.764 -1.21138,-44.28149 18.00371,-64.58677 83.00719,-87.71677 44.25433,-15.74689 50.86182,-26.1357 29.87603,-46.97339 C 727.4319,91.460503 666.37228,95.131243 526.45372,141.50335 474.51395,158.71733 441.43818,152.11767 333.87712,103.07822 245.33515,62.709989 203.2934,52.253783 161.37712,60.175743 75.933428,76.324158 26.198687,216.75677 43.927587,391.81002 c 9.713511,95.91015 40.697687,152.64491 99.354003,181.92595 21.07426,10.5202 42.21247,12.66254 79.64881,8.07236 z"
   id="path415" />
</svg>
